<svg id="Design" xmlns="http://www.w3.org/2000/svg" xmlns:xlink="http://www.w3.org/1999/xlink" viewBox="0 0 5415.19 1969.35"><defs><style>.cls-1,.cls-16,.cls-38{opacity:0.21;}.cls-1{fill:url(#Безымянный_градиент_47);}.cls-2{opacity:0.3;fill:url(#Безымянный_градиент_47-2);}.cls-10,.cls-11,.cls-12,.cls-13,.cls-14,.cls-15,.cls-17,.cls-18,.cls-19,.cls-20,.cls-21,.cls-22,.cls-23,.cls-24,.cls-26,.cls-28,.cls-29,.cls-3,.cls-30,.cls-31,.cls-32,.cls-33,.cls-34,.cls-35,.cls-36,.cls-37,.cls-39,.cls-4,.cls-40,.cls-41,.cls-42,.cls-43,.cls-44,.cls-45,.cls-46,.cls-47,.cls-48,.cls-49,.cls-5,.cls-50,.cls-51,.cls-52,.cls-53,.cls-54,.cls-55,.cls-56,.cls-57,.cls-58,.cls-59,.cls-60,.cls-61,.cls-62,.cls-63,.cls-64,.cls-65,.cls-66,.cls-67,.cls-68,.cls-69,.cls-7,.cls-70,.cls-71,.cls-72,.cls-8,.cls-9{opacity:0.6;}.cls-3{fill:url(#Безымянный_градиент_47-3);}.cls-4{fill:url(#Безымянный_градиент_47-4);}.cls-5{fill:url(#Безымянный_градиент_47-5);}.cls-6{opacity:0.37;fill:url(#Безымянный_градиент_47-6);}.cls-7{fill:url(#Безымянный_градиент_47-7);}.cls-8{fill:url(#Безымянный_градиент_47-8);}.cls-9{fill:url(#Безымянный_градиент_47-9);}.cls-10{fill:url(#Безымянный_градиент_47-10);}.cls-11{fill:url(#Безымянный_градиент_47-11);}.cls-12{fill:url(#Безымянный_градиент_47-12);}.cls-13{fill:url(#Безымянный_градиент_47-13);}.cls-14{fill:url(#Безымянный_градиент_47-14);}.cls-15{fill:url(#Безымянный_градиент_47-15);}.cls-16{fill:url(#Безымянный_градиент_47-16);}.cls-17{fill:url(#Безымянный_градиент_47-17);}.cls-18{fill:url(#Безымянный_градиент_47-18);}.cls-19{fill:url(#Безымянный_градиент_47-19);}.cls-20{fill:url(#Безымянный_градиент_47-20);}.cls-21{fill:url(#Безымянный_градиент_47-21);}.cls-22{fill:url(#Безымянный_градиент_47-22);}.cls-23{fill:url(#Безымянный_градиент_47-23);}.cls-24{fill:url(#Безымянный_градиент_47-24);}.cls-25{opacity:0.18;fill:url(#Безымянный_градиент_47-25);}.cls-26{fill:url(#Безымянный_градиент_47-26);}.cls-27{opacity:0.27;fill:url(#Безымянный_градиент_47-27);}.cls-28{fill:url(#Безымянный_градиент_47-28);}.cls-29{fill:url(#Безымянный_градиент_47-29);}.cls-30{fill:url(#Безымянный_градиент_47-30);}.cls-31{fill:url(#Безымянный_градиент_47-31);}.cls-32{fill:url(#Безымянный_градиент_47-32);}.cls-33{fill:url(#Безымянный_градиент_47-33);}.cls-34{fill:url(#Безымянный_градиент_47-34);}.cls-35{fill:url(#Безымянный_градиент_47-35);}.cls-36{fill:url(#Безымянный_градиент_47-36);}.cls-37{fill:url(#Безымянный_градиент_47-37);}.cls-38{fill:url(#Безымянный_градиент_47-38);}.cls-39{fill:url(#Безымянный_градиент_47-39);}.cls-40{fill:url(#Безымянный_градиент_47-40);}.cls-41{fill:url(#Безымянный_градиент_47-41);}.cls-42{fill:url(#Безымянный_градиент_47-42);}.cls-43{fill:url(#Безымянный_градиент_47-43);}.cls-44{fill:url(#Безымянный_градиент_47-44);}.cls-45{fill:url(#Безымянный_градиент_47-45);}.cls-46{fill:url(#Безымянный_градиент_47-46);}.cls-47{fill:url(#Безымянный_градиент_47-47);}.cls-48{fill:url(#Безымянный_градиент_47-48);}.cls-49{fill:url(#Безымянный_градиент_47-49);}.cls-50{fill:url(#Безымянный_градиент_47-50);}.cls-51{fill:url(#Безымянный_градиент_47-51);}.cls-52{fill:url(#Безымянный_градиент_47-52);}.cls-53{fill:url(#Безымянный_градиент_47-53);}.cls-54{fill:url(#Безымянный_градиент_47-54);}.cls-55{fill:url(#Безымянный_градиент_47-55);}.cls-56{fill:url(#Безымянный_градиент_47-56);}.cls-57{fill:url(#Безымянный_градиент_47-57);}.cls-58{fill:url(#Безымянный_градиент_47-58);}.cls-59{fill:url(#Безымянный_градиент_47-59);}.cls-60{fill:url(#Безымянный_градиент_47-60);}.cls-61{fill:url(#Безымянный_градиент_47-61);}.cls-62{fill:url(#Безымянный_градиент_47-62);}.cls-63{fill:url(#Безымянный_градиент_47-63);}.cls-64{fill:url(#Безымянный_градиент_47-64);}.cls-65{fill:url(#Безымянный_градиент_47-65);}.cls-66{fill:url(#Безымянный_градиент_47-66);}.cls-67{fill:url(#Безымянный_градиент_47-67);}.cls-68{fill:url(#Безымянный_градиент_47-68);}.cls-69{fill:url(#Безымянный_градиент_47-69);}.cls-70{fill:url(#Безымянный_градиент_47-70);}.cls-71{fill:url(#Безымянный_градиент_47-71);}.cls-72{fill:url(#Безымянный_градиент_47-72);}</style><radialGradient id="Безымянный_градиент_47" cx="4633.99" cy="-520.6" r="261.47" gradientTransform="translate(-1948.68 -15752.13) rotate(90) scale(3.7)" gradientUnits="userSpaceOnUse"><stop offset="0" stop-color="#231f20" stop-opacity="0"/><stop offset="0.64" stop-color="#232021" stop-opacity="0.14"/><stop offset="1" stop-color="#242123" stop-opacity="0.3"/></radialGradient><radialGradient id="Безымянный_градиент_47-2" cx="4520.39" cy="-761.02" r="235.08" xlink:href="#Безымянный_градиент_47"/><radialGradient id="Безымянный_градиент_47-3" cx="4730.94" cy="-812.43" r="374.87" xlink:href="#Безымянный_градиент_47"/><radialGradient id="Безымянный_градиент_47-4" cx="4744.32" cy="-1305.35" r="51.32" xlink:href="#Безымянный_градиент_47"/><radialGradient id="Безымянный_градиент_47-5" cx="4810.59" cy="-1347.46" r="51.73" xlink:href="#Безымянный_градиент_47"/><radialGradient id="Безымянный_градиент_47-6" cx="4353.91" cy="-689.04" r="355.75" xlink:href="#Безымянный_градиент_47"/><radialGradient id="Безымянный_градиент_47-7" cx="4387" cy="-1020.27" r="573.59" xlink:href="#Безымянный_градиент_47"/><radialGradient id="Безымянный_градиент_47-8" cx="4581.11" cy="-859.44" r="255.39" xlink:href="#Безымянный_градиент_47"/><radialGradient id="Безымянный_градиент_47-9" cx="4596.77" cy="-717.44" r="222.36" xlink:href="#Безымянный_градиент_47"/><radialGradient id="Безымянный_градиент_47-10" cx="4326.45" cy="-1294.25" r="256.98" xlink:href="#Безымянный_градиент_47"/><radialGradient id="Безымянный_градиент_47-11" cx="4265.77" cy="-845.73" r="285.06" xlink:href="#Безымянный_градиент_47"/><radialGradient id="Безымянный_градиент_47-12" cx="4480.24" cy="-880.98" r="279.1" xlink:href="#Безымянный_градиент_47"/><radialGradient id="Безымянный_градиент_47-13" cx="4269.03" cy="-788.6" r="314.74" xlink:href="#Безымянный_градиент_47"/><radialGradient id="Безымянный_градиент_47-14" cx="4459.67" cy="-1132.01" r="334.96" xlink:href="#Безымянный_градиент_47"/><radialGradient id="Безымянный_градиент_47-15" cx="4551.07" cy="-977.94" r="213.17" xlink:href="#Безымянный_градиент_47"/><radialGradient id="Безымянный_градиент_47-16" cx="4553.69" cy="-673.37" r="349.08" xlink:href="#Безымянный_градиент_47"/><radialGradient id="Безымянный_градиент_47-17" cx="4336.79" cy="-947.9" r="290.76" xlink:href="#Безымянный_градиент_47"/><radialGradient id="Безымянный_градиент_47-18" cx="4308.07" cy="-884.32" r="405.11" xlink:href="#Безымянный_градиент_47"/><radialGradient id="Безымянный_градиент_47-19" cx="4300.76" cy="-1212.94" r="522.39" xlink:href="#Безымянный_градиент_47"/><radialGradient id="Безымянный_градиент_47-20" cx="4344.11" cy="-843.77" r="639.95" xlink:href="#Безымянный_градиент_47"/><radialGradient id="Безымянный_градиент_47-21" cx="4425.2" cy="-1069.69" r="523.65" xlink:href="#Безымянный_градиент_47"/><radialGradient id="Безымянный_градиент_47-22" cx="4724.74" cy="-1206.44" r="317.47" xlink:href="#Безымянный_градиент_47"/><radialGradient id="Безымянный_градиент_47-23" cx="4602" cy="-1353.99" r="220.69" xlink:href="#Безымянный_градиент_47"/><radialGradient id="Безымянный_градиент_47-24" cx="4843.57" cy="-1094.15" r="283.46" xlink:href="#Безымянный_градиент_47"/><radialGradient id="Безымянный_градиент_47-25" cx="4450.86" cy="-760.53" r="354.59" xlink:href="#Безымянный_градиент_47"/><radialGradient id="Безымянный_градиент_47-26" cx="4364.68" cy="-665.53" r="294.66" xlink:href="#Безымянный_градиент_47"/><radialGradient id="Безымянный_градиент_47-27" cx="4153.15" cy="-767.38" r="478.89" xlink:href="#Безымянный_градиент_47"/><radialGradient id="Безымянный_градиент_47-28" cx="4449.22" cy="-1393.16" r="231.94" xlink:href="#Безымянный_градиент_47"/><radialGradient id="Безымянный_градиент_47-29" cx="4583.72" cy="-1207.75" r="308.18" xlink:href="#Безымянный_градиент_47"/><radialGradient id="Безымянный_градиент_47-30" cx="4464.89" cy="-1107.2" r="279.9" xlink:href="#Безымянный_градиент_47"/><radialGradient id="Безымянный_градиент_47-31" cx="4568.05" cy="-928.32" r="214.59" xlink:href="#Безымянный_градиент_47"/><radialGradient id="Безымянный_градиент_47-32" cx="4543.24" cy="-1310.9" r="274.03" xlink:href="#Безымянный_градиент_47"/><radialGradient id="Безымянный_градиент_47-33" cx="4711.68" cy="-1154.21" r="383.87" xlink:href="#Безымянный_градиент_47"/><radialGradient id="Безымянный_градиент_47-34" cx="4397" cy="-1053.67" r="280.56" xlink:href="#Безымянный_градиент_47"/><radialGradient id="Безымянный_градиент_47-35" cx="4527.57" cy="-744.2" r="294.6" xlink:href="#Безымянный_градиент_47"/><radialGradient id="Безымянный_градиент_47-36" cx="4695.68" cy="-1036.69" r="299.99" xlink:href="#Безымянный_градиент_47"/><radialGradient id="Безымянный_градиент_47-37" cx="4526.26" cy="-929.62" r="141.24" xlink:href="#Безымянный_градиент_47"/><radialGradient id="Безымянный_градиент_47-38" cx="4385.24" cy="-644.97" r="388.01" xlink:href="#Безымянный_градиент_47"/><radialGradient id="Безымянный_градиент_47-39" cx="4605.92" cy="-1022.33" r="250.9" xlink:href="#Безымянный_градиент_47"/><radialGradient id="Безымянный_градиент_47-40" cx="4698.62" cy="-888.81" r="320.4" xlink:href="#Безымянный_градиент_47"/><radialGradient id="Безымянный_градиент_47-41" cx="4568.38" cy="-929.95" r="490.49" xlink:href="#Безымянный_градиент_47"/><radialGradient id="Безымянный_градиент_47-42" cx="4658.47" cy="-1067.05" r="227.22" xlink:href="#Безымянный_градиент_47"/><radialGradient id="Безымянный_градиент_47-43" cx="4534.68" cy="-1174.68" r="288.6" xlink:href="#Безымянный_градиент_47"/><radialGradient id="Безымянный_градиент_47-44" cx="4503.24" cy="-1315.6" r="329.75" xlink:href="#Безымянный_градиент_47"/><radialGradient id="Безымянный_градиент_47-45" cx="4552.38" cy="-1611.69" r="273.17" xlink:href="#Безымянный_градиент_47"/><radialGradient id="Безымянный_градиент_47-46" cx="4616.36" cy="-1143.43" r="285.31" xlink:href="#Безымянный_градиент_47"/><radialGradient id="Безымянный_градиент_47-47" cx="4782.52" cy="-1391.57" r="141.88" xlink:href="#Безымянный_градиент_47"/><radialGradient id="Безымянный_градиент_47-48" cx="4702.91" cy="-1338.46" r="101.82" xlink:href="#Безымянный_градиент_47"/><radialGradient id="Безымянный_градиент_47-49" cx="4744.32" cy="-1849.67" r="51.32" xlink:href="#Безымянный_градиент_47"/><radialGradient id="Безымянный_градиент_47-50" cx="4810.59" cy="-1871.86" r="36" xlink:href="#Безымянный_градиент_47"/><radialGradient id="Безымянный_градиент_47-51" cx="4387" cy="-1564.59" r="573.59" xlink:href="#Безымянный_градиент_47"/><radialGradient id="Безымянный_градиент_47-52" cx="4326.45" cy="-1838.57" r="256.98" xlink:href="#Безымянный_градиент_47"/><radialGradient id="Безымянный_градиент_47-53" cx="4655.07" cy="-1674.35" r="390.2" xlink:href="#Безымянный_градиент_47"/><radialGradient id="Безымянный_градиент_47-54" cx="4551.07" cy="-1386.56" r="213.45" xlink:href="#Безымянный_градиент_47"/><radialGradient id="Безымянный_градиент_47-55" cx="4336.79" cy="-1492.22" r="290.76" xlink:href="#Безымянный_градиент_47"/><radialGradient id="Безымянный_градиент_47-56" cx="4318.19" cy="-1374.08" r="479.66" xlink:href="#Безымянный_градиент_47"/><radialGradient id="Безымянный_градиент_47-57" cx="4300.76" cy="-1757.26" r="522.39" xlink:href="#Безымянный_градиент_47"/><radialGradient id="Безымянный_градиент_47-58" cx="4491.5" cy="-1604.39" r="650.85" xlink:href="#Безымянный_градиент_47"/><radialGradient id="Безымянный_градиент_47-59" cx="4724.74" cy="-1750.76" r="317.47" xlink:href="#Безымянный_градиент_47"/><radialGradient id="Безымянный_градиент_47-60" cx="4602" cy="-1898.31" r="220.69" xlink:href="#Безымянный_градиент_47"/><radialGradient id="Безымянный_градиент_47-61" cx="4843.57" cy="-1638.47" r="283.46" xlink:href="#Безымянный_градиент_47"/><radialGradient id="Безымянный_градиент_47-62" cx="4449.22" cy="-1937.48" r="231.94" xlink:href="#Безымянный_градиент_47"/><radialGradient id="Безымянный_градиент_47-63" cx="4583.72" cy="-1752.07" r="308.18" xlink:href="#Безымянный_градиент_47"/><radialGradient id="Безымянный_градиент_47-64" cx="4464.89" cy="-1651.52" r="279.9" xlink:href="#Безымянный_градиент_47"/><radialGradient id="Безымянный_градиент_47-65" cx="4568.05" cy="-1472.64" r="214.59" xlink:href="#Безымянный_градиент_47"/><radialGradient id="Безымянный_градиент_47-66" cx="4568.05" cy="-1361.09" r="213.44" xlink:href="#Безымянный_градиент_47"/><radialGradient id="Безымянный_градиент_47-67" cx="4543.24" cy="-1855.22" r="274.03" xlink:href="#Безымянный_градиент_47"/><radialGradient id="Безымянный_градиент_47-68" cx="4711.68" cy="-1698.53" r="383.87" xlink:href="#Безымянный_градиент_47"/><radialGradient id="Безымянный_градиент_47-69" cx="4534.68" cy="-1719" r="288.6" xlink:href="#Безымянный_градиент_47"/><radialGradient id="Безымянный_градиент_47-70" cx="4552.38" cy="-2156.01" r="273.17" xlink:href="#Безымянный_градиент_47"/><radialGradient id="Безымянный_градиент_47-71" cx="4620.41" cy="-1687.75" r="297.83" xlink:href="#Безымянный_градиент_47"/><radialGradient id="Безымянный_градиент_47-72" cx="4740.8" cy="-1946.98" r="0" gradientTransform="translate(1477.73 -18388.03) rotate(90) scale(3.7)" xlink:href="#Безымянный_градиент_47"/></defs><title>Векторный смарт-объект</title><polygon class="cls-1" points="585.15 1969.35 469.1 1500.24 219.78 1969.35 585.15 1969.35"/><polygon id="triangle36" class="cls-2" points="488.45 1094.01 469.1 1500.24 1178.71 1355.04 488.45 1094.01"/><polygon class="cls-3" points="712.05 1969.35 1178.71 1355.06 469.1 1500.24 585.15 1969.35 712.05 1969.35"/><polygon class="cls-4" points="2975.73 1969.35 2927.12 1917.65 2839.84 1969.35 2975.73 1969.35"/><polygon class="cls-5" points="3063.24 1969.35 3056.63 1943.22 2927.12 1917.65 2975.73 1969.35 3063.24 1969.35"/><polygon id="triangle36-2" data-name="triangle36" class="cls-6" points="401.65 600.67 488.45 1094.01 971.5 690.17 401.65 600.67"/><polygon class="cls-7" points="3366.27 378.04 3017.76 396.08 3133.79 938.3 3366.27 378.04"/><polygon id="triangle36-3" data-name="triangle36" class="cls-8" points="971.5 690.17 488.45 1094.01 1062.15 971.47 971.5 690.17"/><polygon id="triangle36-4" data-name="triangle36" class="cls-9" points="488.45 1094.01 1178.71 1355.04 1062.15 971.47 488.45 1094.01"/><polygon id="triangle36-5" data-name="triangle36" class="cls-10" points="2693.99 63.65 3017.76 396.08 2592.15 479.82 2693.99 63.65"/><polygon id="triangle36-6" data-name="triangle36" class="cls-11" points="1243.48 255.44 971.5 690.17 1321.17 677.38 1243.48 255.44"/><polygon id="triangle36-7" data-name="triangle36" class="cls-12" points="971.5 690.17 1062.15 971.47 1321.17 677.38 971.5 690.17"/><polygon id="triangle36-8" data-name="triangle36" class="cls-13" points="1657.91 792.47 1062.15 971.47 1321.17 677.38 1657.91 792.47"/><polygon id="triangle36-9" data-name="triangle36" class="cls-14" points="1800.37 881.97 2252.41 1535.29 1644.96 1563.88 1800.37 881.97"/><polygon class="cls-15" points="1911.52 1969.35 2252.41 1535.29 1644.96 1563.88 1871.16 1969.35 1911.52 1969.35"/><polygon class="cls-16" points="0 1221.93 488.45 1094.01 401.65 600.67 0 1189.46 0 1221.93"/><polygon id="triangle36-10" data-name="triangle36" class="cls-17" points="2592.15 479.82 1800.37 881.97 2160.15 0 2592.15 479.82"/><polygon id="triangle36-11" data-name="triangle36" class="cls-18" points="1321.17 677.38 1657.91 792.47 2160.15 0 1321.17 677.38"/><polygon id="triangle36-12" data-name="triangle36" class="cls-19" points="1657.91 792.47 1800.37 881.97 2160.15 0 1657.91 792.47"/><polygon id="triangle36-13" data-name="triangle36" class="cls-20" points="1243.48 255.44 1321.17 677.38 1411.84 114.79 1243.48 255.44"/><polygon id="triangle36-14" data-name="triangle36" class="cls-21" points="2160.15 0 1321.17 677.38 1411.84 114.79 2160.15 0"/><polygon class="cls-22" points="1977.76 1969.35 2555.88 1580.04 2252.41 1535.29 1911.52 1969.35 1977.76 1969.35"/><polygon class="cls-23" points="2839.84 1969.35 2927.12 1917.65 2555.88 1580.04 2508.46 1969.35 2839.84 1969.35"/><polygon class="cls-24" points="2508.46 1969.35 2555.88 1580.04 1977.76 1969.35 2508.46 1969.35"/><polygon id="triangle36-15" data-name="triangle36" class="cls-25" points="623.83 27.59 401.65 600.67 783.45 40.95 623.83 27.59"/><polygon id="triangle36-16" data-name="triangle36" class="cls-26" points="1243.48 255.44 971.5 690.17 783.45 40.95 1243.48 255.44"/><polygon id="triangle36-17" data-name="triangle36" class="cls-27" points="401.65 600.67 971.5 690.17 783.45 40.95 401.65 600.67"/><polygon id="triangle36-18" data-name="triangle36" class="cls-28" points="2592.15 479.82 3017.76 396.08 2681.04 1112.11 2592.15 479.82"/><polygon id="triangle36-19" data-name="triangle36" class="cls-29" points="2592.15 479.82 1800.37 881.97 2681.04 1112.11 2592.15 479.82"/><polygon class="cls-30" points="3133.79 938.3 3017.76 396.08 2681.04 1112.11 3133.79 938.3 3133.79 938.3"/><polygon id="triangle36-20" data-name="triangle36" class="cls-31" points="1800.37 881.97 2252.41 1535.29 2681.04 1112.11 1800.37 881.97"/><polygon id="triangle36-21" data-name="triangle36" class="cls-32" points="2252.41 1535.29 2555.88 1580.04 2681.04 1112.11 2252.41 1535.29"/><polygon id="triangle36-22" data-name="triangle36" class="cls-33" points="2555.88 1580.04 2927.12 1917.65 2681.04 1112.11 2555.88 1580.04"/><polygon id="triangle36-23" data-name="triangle36" class="cls-34" points="1657.91 792.47 1800.37 881.97 1490.73 1488.14 1657.91 792.47"/><polygon id="triangle36-24" data-name="triangle36" class="cls-35" points="1657.91 792.47 1062.15 971.47 1490.73 1488.14 1657.91 792.47"/><polygon id="triangle36-25" data-name="triangle36" class="cls-36" points="1800.37 881.97 1644.96 1563.88 1490.73 1488.14 1800.37 881.97"/><polygon id="triangle36-26" data-name="triangle36" class="cls-37" points="1062.15 971.47 1178.71 1355.04 1490.73 1488.14 1062.15 971.47"/><polygon id="triangle36-27" data-name="triangle36" class="cls-38" points="623.83 27.59 401.65 600.67 103.78 421.67 623.83 27.59"/><polygon class="cls-39" points="1625.66 1969.35 1490.73 1488.14 1178.71 1355.06 1534.27 1969.35 1625.66 1969.35"/><polygon class="cls-40" points="1679.79 1969.35 1644.96 1563.88 1490.73 1488.14 1625.66 1969.35 1679.79 1969.35"/><polygon class="cls-41" points="1534.27 1969.35 1178.71 1355.06 712.05 1969.35 1534.27 1969.35"/><polygon class="cls-42" points="1871.16 1969.35 1644.96 1563.88 1679.79 1969.35 1871.16 1969.35"/><polygon class="cls-43" points="3133.79 938.3 2681.04 1112.11 3399.19 1458.15 3133.79 938.3"/><polygon class="cls-44" points="3673.91 792.47 3133.79 938.3 3399.19 1458.15 3673.91 792.47"/><polygon class="cls-45" points="3399.19 1458.15 2681.04 1112.11 3133.79 1668.13 3399.19 1458.15"/><polygon class="cls-46" points="3246.34 1806.36 2681.04 1112.11 2927.12 1917.65 3133.79 1806.36 3246.34 1806.36"/><polygon class="cls-47" points="3133.79 1806.36 2927.12 1917.65 3056.63 1943.22 3246.34 1806.36 3133.79 1806.36"/><polygon class="cls-48" points="3246.34 1806.36 3056.63 1943.22 3063.24 1969.35 3133.79 1969.35 3246.34 1806.36"/><polygon class="cls-49" points="4991.73 1969.35 4943.12 1917.65 4855.84 1969.35 4991.73 1969.35"/><line class="cls-50" x1="4943.12" y1="1917.65" x2="4991.73" y2="1969.35"/><polygon class="cls-51" points="5382.27 378.04 5033.76 396.08 5149.79 938.3 5382.27 378.04"/><polygon id="triangle36-28" data-name="triangle36" class="cls-52" points="4709.99 63.65 5033.76 396.08 4608.15 479.82 4709.99 63.65"/><polygon id="triangle36-29" data-name="triangle36" class="cls-53" points="3133.79 1668.13 4268.41 1535.29 3246.34 1806.36 3133.79 1668.13"/><polygon class="cls-54" points="3927.52 1969.35 4268.41 1535.29 3246.34 1806.36 3133.79 1969.35 3927.52 1969.35"/><polygon id="triangle36-30" data-name="triangle36" class="cls-55" points="4608.15 479.82 3816.37 881.97 4176.15 0 4608.15 479.82"/><polygon id="triangle36-31" data-name="triangle36" class="cls-56" points="3133.79 938.3 3673.91 792.47 4176.15 0 3133.79 938.3"/><polygon id="triangle36-32" data-name="triangle36" class="cls-57" points="3673.91 792.47 3816.37 881.97 4176.15 0 3673.91 792.47"/><polygon id="triangle36-33" data-name="triangle36" class="cls-58" points="4176.15 0 3133.79 938.3 3366.27 378.04 4176.15 0"/><polygon class="cls-59" points="3993.76 1969.35 4571.88 1580.04 4268.41 1535.29 3927.52 1969.35 3993.76 1969.35"/><polygon class="cls-60" points="4855.84 1969.35 4943.12 1917.65 4571.88 1580.04 4524.46 1969.35 4855.84 1969.35"/><polygon class="cls-61" points="4524.46 1969.35 4571.88 1580.04 3993.76 1969.35 4524.46 1969.35"/><polygon id="triangle36-34" data-name="triangle36" class="cls-62" points="4608.15 479.82 5033.76 396.08 4697.04 1112.11 4608.15 479.82"/><polygon id="triangle36-35" data-name="triangle36" class="cls-63" points="4608.15 479.82 3816.37 881.97 4697.04 1112.11 4608.15 479.82"/><polygon class="cls-64" points="5149.79 938.3 5033.76 396.08 4697.04 1112.11 5149.79 938.3 5149.79 938.3"/><polygon id="triangle36-36" data-name="triangle36" class="cls-65" points="3816.37 881.97 4268.41 1535.29 4697.04 1112.11 3816.37 881.97"/><polygon id="triangle36-37" data-name="triangle36" class="cls-66" points="3816.37 881.97 3399.19 1458.15 4268.41 1535.29 3816.37 881.97"/><polygon id="triangle36-38" data-name="triangle36" class="cls-67" points="4268.41 1535.29 4571.88 1580.04 4697.04 1112.11 4268.41 1535.29"/><polygon id="triangle36-39" data-name="triangle36" class="cls-68" points="4571.88 1580.04 4943.12 1917.65 4697.04 1112.11 4571.88 1580.04"/><polygon class="cls-69" points="5149.79 938.3 4697.04 1112.11 5415.19 1458.15 5149.79 938.3"/><polygon class="cls-70" points="5415.19 1458.15 4697.04 1112.11 5149.79 1668.13 5415.19 1458.15"/><polygon class="cls-71" points="5262.34 1806.36 4697.04 1112.11 4943.12 1917.65 4991.73 1969.35 5262.34 1806.36"/><path class="cls-72" d="M8688.74-829.54" transform="translate(-3426.4 2635.9)"/></svg>